<svg xmlns="http://www.w3.org/2000/svg" xmlns:xlink="http://www.w3.org/1999/xlink" width="57.113" height="24.608" viewBox="0 0 57.113 24.608">
  <defs>
    <linearGradient id="linear-gradient" x1="0.698" y1="0.236" x2="0.032" y2="1.962" gradientUnits="objectBoundingBox">
      <stop offset="0" stop-color="#b3b4b8"/>
      <stop offset="1" stop-color="#f9fafb" stop-opacity="0"/>
    </linearGradient>
  </defs>
  <path id="آیکن_جهت_زیبا_کننده" data-name="آیکن جهت زیبا کننده" d="M52.8,4.883c-4.631,1.256-8.41,4.656-13.352,4.743-.3-1.991.8-2.776,1.916-2.752a7.929,7.929,0,0,0,3.992-1.4c2.32-1.233,4.608-2.537,6.9-3.83,2.133-1.2,2.982-.8,3.159,1.6.236,3.218.433,6.44.628,9.662.038.621-.007,1.248-.014,1.961-1.947-.84-2.051-1.154-2.857-8.31a15.86,15.86,0,0,0-1.313,1.3c-6.5,8.245-14.732,13.02-24.964,13.763-4.375.317-8.575-.254-12.18-2.981A3.269,3.269,0,0,0,11.7,18.2a17.182,17.182,0,0,1-9.5-.483A6.081,6.081,0,0,1,0,16.4c3.987.541,7.889,1.542,11.988-.031-.271-.548-.5-1.025-.74-1.5A10.547,10.547,0,0,1,13.16,2.393c2.95-3.057,7.024-3.2,9.8-.345,3.11,3.2,3.163,7.837-.008,10.815a25.5,25.5,0,0,1-3.792,2.647c-.742.476-1.556.829-2.558,1.353a9.662,9.662,0,0,0,5.715,2.356,30.344,30.344,0,0,0,21.868-5.924,59.142,59.142,0,0,0,5.925-5.31C51.087,7.046,51.906,5.923,52.8,4.883ZM12.15,10.716c.463.983,1.109,2.553,1.946,4a1.66,1.66,0,0,0,1.551.55c2.53-.941,5.007-2.06,6.794-4.29A5.461,5.461,0,0,0,22,3.95a4.351,4.351,0,0,0-6.2-.819C13.529,4.8,12.471,7.191,12.15,10.716Z" transform="translate(57.113 21.675) rotate(177)" fill="url(#linear-gradient)"/>
</svg>
