<svg id="folder" xmlns="http://www.w3.org/2000/svg" width="20.001" height="20" viewBox="0 0 20.001 20">
  <path id="Path_117013" data-name="Path 117013" d="M14.884,3.115H11.941a2.429,2.429,0,0,1-1.894-.887L9.078.888A2.367,2.367,0,0,0,7.193,0H5.113C1.378,0,0,2.192,0,5.919V9.947c0,.443,20,.442,20,0V8.776C20.015,5.049,18.672,3.115,14.884,3.115Z" fill="#70737d" opacity="0.4"/>
  <path id="Path_117014" data-name="Path 117014" d="M14.875,3.115a5.218,5.218,0,0,1,3.628,1.1,2.868,2.868,0,0,1,.329.328,3.954,3.954,0,0,1,.729,1.269A8.546,8.546,0,0,1,20,8.776h0v5.253a9.347,9.347,0,0,1-.1,1.322,5.991,5.991,0,0,1-.8,2.183,4.433,4.433,0,0,1-.676.887,6,6,0,0,1-4.366,1.571H5.931a6.026,6.026,0,0,1-4.375-1.571,4.434,4.434,0,0,1-.667-.887,5.831,5.831,0,0,1-.782-2.183A8.224,8.224,0,0,1,0,14.029H0V8.776A12.114,12.114,0,0,1,.071,7.463,4.809,4.809,0,0,0,.16,6.868,5.635,5.635,0,0,1,.649,5.351c.694-1.482,2.116-2.236,4.446-2.236h9.781Zm.24,8.776H4.97a.825.825,0,1,0,0,1.65H15.053a.826.826,0,0,0,.862-.8.744.744,0,0,0-.178-.532.783.783,0,0,0-.622-.319Z" fill="#70737d"/>
</svg>
