<svg xmlns="http://www.w3.org/2000/svg" width="20.005" height="19.94" viewBox="0 0 20.005 19.94">
  <g id="phone-01" transform="translate(-1.995 -2)">
    <path id="secondary" d="M17,13a1,1,0,0,1-1-1,4,4,0,0,0-4-4,1,1,0,0,1,0-2,6,6,0,0,1,6,6A1,1,0,0,1,17,13Zm4.93.12A8.32,8.32,0,0,0,22,12,10,10,0,0,0,12,2a8.32,8.32,0,0,0-1.12.07,1.007,1.007,0,1,0,.24,2A8.49,8.49,0,0,1,12,4a8,8,0,0,1,8,8,8.491,8.491,0,0,1-.05.88A1,1,0,0,0,20.82,14h.12a1,1,0,0,0,.99-.88Z" fill="#2ca9bc"/>
    <path id="primary" d="M18.18,17.53a3,3,0,0,0-1.5-1.89c-.33-.17-.66-.36-1-.55a3,3,0,0,0-4,.79l-1.26,1.8a18.41,18.41,0,0,1-2.21-1.9,18.41,18.41,0,0,1-1.9-2.21l1.8-1.26a3,3,0,0,0,.79-4,8.47,8.47,0,0,1-.55-1,3,3,0,0,0-4.29-1.1l-1,.62a2.15,2.15,0,0,0-1,2.38,14.48,14.48,0,0,0,2,4.63h0a19.15,19.15,0,0,0,2.71,3.33,19.15,19.15,0,0,0,3.33,2.71h0a14.48,14.48,0,0,0,4.63,2,2.29,2.29,0,0,0,.51.06,2.21,2.21,0,0,0,1.86-1.12l.62-.95A3,3,0,0,0,18.18,17.53Z"/>
  </g>
</svg>
