<svg id="user" xmlns="http://www.w3.org/2000/svg" width="18" height="20" viewBox="0 0 18 20">
  <ellipse id="Ellipse_12" data-name="Ellipse 12" cx="5.625" cy="5.556" rx="5.625" ry="5.556" transform="translate(3.375)" fill="#15192a" opacity="0.4"/>
  <path id="Path_74087" data-name="Path 74087" d="M17.99,16.676h0a1.844,1.844,0,0,0,0-.237,2.141,2.141,0,0,0-.244-.84c-.547-1.068-2.08-1.552-3.359-1.826a18.88,18.88,0,0,0-2.773-.365l-.976-.073H7.357l-.976.073a18.88,18.88,0,0,0-2.773.365C2.328,14.009.795,14.5.248,15.6a2.143,2.143,0,0,0-.244.84,1.853,1.853,0,0,0,0,.237H0a2.007,2.007,0,0,0,0,.237,2.146,2.146,0,0,0,.254.831C.8,18.813,2.338,19.3,3.617,19.571a21.715,21.715,0,0,0,2.773.365L7.366,20h3.281l.977-.064a21.717,21.717,0,0,0,2.773-.365c1.279-.247,2.812-.731,3.359-1.826A2.368,2.368,0,0,0,18,16.9,1.783,1.783,0,0,0,17.99,16.676Z" transform="translate(0 0)" fill="#15192a"/>
</svg>
